<svg width="54" height="54" viewBox="0 0 54 54" fill="none" xmlns="http://www.w3.org/2000/svg">
<rect width="54" height="54" rx="27" fill="#222222"/>
<path fill-rule="evenodd" clip-rule="evenodd" d="M27.0282 16.1667C21.0601 16.1667 16.223 21.0038 16.223 26.9719C16.223 31.7451 19.3181 35.7957 23.6124 37.2257C24.153 37.3232 24.348 36.9906 24.348 36.7046C24.348 36.4478 24.3393 35.7675 24.3361 34.8673C21.3298 35.5194 20.695 33.4178 20.695 33.4178C20.2053 32.1698 19.4957 31.8372 19.4957 31.8372C18.5153 31.1666 19.5705 31.1818 19.5705 31.1818C20.656 31.2576 21.2248 32.2954 21.2248 32.2954C22.1889 33.9464 23.7554 33.4698 24.3686 33.1935C24.4672 32.4948 24.7488 32.0181 25.0565 31.7483C22.658 31.4764 20.136 30.5491 20.136 26.4075C20.136 25.2299 20.5574 24.2636 21.2453 23.5096C21.1359 23.2355 20.7622 22.1359 21.3526 20.6496C21.3526 20.6496 22.2593 20.3582 24.3231 21.7557C25.2045 21.5159 26.1137 21.3935 27.0271 21.3917C27.9405 21.3931 28.8498 21.5155 29.7311 21.7557C31.7959 20.3571 32.7016 20.6496 32.7016 20.6496C33.292 22.1359 32.9215 23.2355 32.8088 23.5096C33.5022 24.2636 33.9182 25.2288 33.9182 26.4075C33.9182 30.5599 31.394 31.4721 28.9868 31.7397C29.3714 32.0733 29.7181 32.732 29.7181 33.7395C29.7181 35.1847 29.7051 36.3503 29.7051 36.7046C29.7051 36.9938 29.8979 37.3297 30.4493 37.2235C34.7415 35.7913 37.8333 31.744 37.8333 26.9719C37.8333 21.0038 32.9963 16.1667 27.0282 16.1667Z" fill="#D3E97A"/>
</svg>
