<svg width="54" height="54" viewBox="0 0 54 54" fill="none" xmlns="http://www.w3.org/2000/svg">
<rect width="54" height="54" rx="27" fill="#222222"/>
<path d="M19.3983 21.7968C20.7073 21.7968 21.7686 20.7356 21.7686 19.4265C21.7686 18.1174 20.7073 17.0562 19.3983 17.0562C18.0892 17.0562 17.0279 18.1174 17.0279 19.4265C17.0279 20.7356 18.0892 21.7968 19.3983 21.7968Z" fill="#D3E97A"/>
<path d="M24.0068 23.5928V36.7434H28.0898V30.2402C28.0898 28.5242 28.4127 26.8623 30.5403 26.8623C32.6388 26.8623 32.6648 28.8242 32.6648 30.3485V36.7445H36.75V29.5327C36.75 25.9902 35.9873 23.2678 31.8468 23.2678C29.8589 23.2678 28.5264 24.3587 27.9815 25.3912H27.9263V23.5928H24.0068ZM17.3529 23.5928H21.4425V36.7434H17.3529V23.5928Z" fill="#D3E97A"/>
</svg>
